<?xml version="1.0" encoding="UTF-8" standalone="no"?>
<!-- Dummy sample figure (parody). Hand-authored, no metadata. -->
<svg xmlns="http://www.w3.org/2000/svg" width="640" height="240" viewBox="0 0 640 240">
  <rect x="0" y="0" width="640" height="240" fill="#ffffff"/>
  <g font-family="sans-serif" font-size="16" text-anchor="middle">
    <!-- boxes -->
    <rect x="20"  y="90" width="120" height="60" rx="6" fill="#eef3fb" stroke="#2E74B5" stroke-width="2"/>
    <text x="80"  y="116">予感 (P)</text>
    <text x="80"  y="138" font-size="12">Hunch input</text>

    <rect x="190" y="90" width="120" height="60" rx="6" fill="#eef3fb" stroke="#2E74B5" stroke-width="2"/>
    <text x="250" y="116">TJD</text>
    <text x="250" y="138" font-size="12">heavy &amp; pointy</text>

    <rect x="360" y="90" width="120" height="60" rx="6" fill="#eef3fb" stroke="#2E74B5" stroke-width="2"/>
    <text x="420" y="116">THS 算出</text>
    <text x="420" y="138" font-size="12">P&#215;S / A&#178;</text>

    <rect x="520" y="90" width="100" height="60" rx="6" fill="#eef3fb" stroke="#2E74B5" stroke-width="2"/>
    <text x="570" y="124">出力 (tsu)</text>

    <!-- arrows -->
    <g stroke="#444" stroke-width="2" fill="#444">
      <line x1="140" y1="120" x2="186" y2="120"/>
      <polygon points="186,120 178,116 178,124"/>
      <line x1="310" y1="120" x2="356" y2="120"/>
      <polygon points="356,120 348,116 348,124"/>
      <line x1="480" y1="120" x2="516" y2="120"/>
      <polygon points="516,120 508,116 508,124"/>
    </g>

    <text x="320" y="40" font-size="18" font-weight="bold">TJD 計測系の全体構成（ダミー）</text>
  </g>
</svg>
